<mxfile host="Electron" modified="2023-06-04T09:58:37.370Z" agent="Mozilla/5.0 (Windows NT 10.0; Win64; x64) AppleWebKit/537.36 (KHTML, like Gecko) draw.io/21.2.8 Chrome/112.0.5615.165 Electron/24.2.0 Safari/537.36" etag="T6_GCK2Vgr88oqBbptRQ" version="21.2.8" type="device">
  <diagram name="Page-1" id="5d7acffa-a066-3a61-03fe-96351882024d">
    <mxGraphModel dx="1036" dy="614" grid="1" gridSize="10" guides="1" tooltips="1" connect="1" arrows="1" fold="1" page="1" pageScale="1" pageWidth="1100" pageHeight="850" background="#ffffff" math="0" shadow="0">
      <root>
        <mxCell id="0" />
        <mxCell id="1" parent="0" />
        <mxCell id="QZWRVkWgOH4tQiXEA4vU-45" value="&lt;font style=&quot;font-size: 16px;&quot;&gt;作答记录&lt;/font&gt;" style="html=1;rounded=0;shadow=0;comic=0;labelBackgroundColor=none;strokeWidth=2;fontFamily=Verdana;fontSize=12;align=center;shape=mxgraph.ios7ui.horLines;" vertex="1" parent="1">
          <mxGeometry x="435" y="490" width="135" height="50" as="geometry" />
        </mxCell>
        <mxCell id="QZWRVkWgOH4tQiXEA4vU-46" value="&lt;font style=&quot;font-size: 16px;&quot;&gt;成绩记录&lt;/font&gt;" style="html=1;rounded=0;shadow=0;comic=0;labelBackgroundColor=none;strokeWidth=2;fontFamily=Verdana;fontSize=12;align=center;shape=mxgraph.ios7ui.horLines;" vertex="1" parent="1">
          <mxGeometry x="660" y="490" width="135" height="50" as="geometry" />
        </mxCell>
        <mxCell id="QZWRVkWgOH4tQiXEA4vU-47" value="记录考生作答&lt;br style=&quot;font-size: 16px;&quot;&gt;3.1" style="ellipse;whiteSpace=wrap;html=1;fontSize=16;" vertex="1" parent="1">
          <mxGeometry x="260" y="345" width="120" height="80" as="geometry" />
        </mxCell>
        <mxCell id="QZWRVkWgOH4tQiXEA4vU-48" value="" style="endArrow=classic;html=1;rounded=0;entryX=0;entryY=0.5;entryDx=0;entryDy=0;" edge="1" parent="1">
          <mxGeometry width="50" height="50" relative="1" as="geometry">
            <mxPoint x="150" y="384" as="sourcePoint" />
            <mxPoint x="260" y="384.40999999999997" as="targetPoint" />
          </mxGeometry>
        </mxCell>
        <mxCell id="QZWRVkWgOH4tQiXEA4vU-49" value="&lt;span style=&quot;font-size: 16px;&quot;&gt;考生作答&lt;br&gt;&lt;/span&gt;" style="edgeLabel;html=1;align=center;verticalAlign=middle;resizable=0;points=[];" vertex="1" connectable="0" parent="QZWRVkWgOH4tQiXEA4vU-48">
          <mxGeometry x="0.2482" y="-2" relative="1" as="geometry">
            <mxPoint x="-17" y="-2" as="offset" />
          </mxGeometry>
        </mxCell>
        <mxCell id="QZWRVkWgOH4tQiXEA4vU-50" value="&lt;font style=&quot;font-size: 16px;&quot;&gt;试卷记录&lt;/font&gt;" style="html=1;rounded=0;shadow=0;comic=0;labelBackgroundColor=none;strokeWidth=2;fontFamily=Verdana;fontSize=12;align=center;shape=mxgraph.ios7ui.horLines;" vertex="1" parent="1">
          <mxGeometry x="660" y="260" width="135" height="50" as="geometry" />
        </mxCell>
        <mxCell id="QZWRVkWgOH4tQiXEA4vU-51" value="自动批改选择题&lt;br style=&quot;font-size: 16px;&quot;&gt;3.2" style="ellipse;whiteSpace=wrap;html=1;fontSize=16;" vertex="1" parent="1">
          <mxGeometry x="470" y="310" width="120" height="80" as="geometry" />
        </mxCell>
        <mxCell id="QZWRVkWgOH4tQiXEA4vU-57" value="" style="endArrow=classic;html=1;rounded=0;exitX=1;exitY=0.5;exitDx=0;exitDy=0;entryX=0.185;entryY=-0.044;entryDx=0;entryDy=0;entryPerimeter=0;" edge="1" parent="1" source="QZWRVkWgOH4tQiXEA4vU-47" target="QZWRVkWgOH4tQiXEA4vU-45">
          <mxGeometry width="50" height="50" relative="1" as="geometry">
            <mxPoint x="480" y="430" as="sourcePoint" />
            <mxPoint x="530" y="380" as="targetPoint" />
          </mxGeometry>
        </mxCell>
        <mxCell id="QZWRVkWgOH4tQiXEA4vU-58" value="" style="endArrow=classic;html=1;rounded=0;exitX=0.409;exitY=1.068;exitDx=0;exitDy=0;exitPerimeter=0;entryX=1;entryY=0.5;entryDx=0;entryDy=0;" edge="1" parent="1" source="QZWRVkWgOH4tQiXEA4vU-50" target="QZWRVkWgOH4tQiXEA4vU-51">
          <mxGeometry width="50" height="50" relative="1" as="geometry">
            <mxPoint x="730" y="410" as="sourcePoint" />
            <mxPoint x="780" y="360" as="targetPoint" />
            <Array as="points">
              <mxPoint x="715" y="350" />
            </Array>
          </mxGeometry>
        </mxCell>
        <mxCell id="QZWRVkWgOH4tQiXEA4vU-59" value="&lt;font style=&quot;font-size: 16px;&quot;&gt;选择题答案&lt;/font&gt;" style="edgeLabel;html=1;align=center;verticalAlign=middle;resizable=0;points=[];" vertex="1" connectable="0" parent="QZWRVkWgOH4tQiXEA4vU-58">
          <mxGeometry x="-0.0446" y="2" relative="1" as="geometry">
            <mxPoint as="offset" />
          </mxGeometry>
        </mxCell>
        <mxCell id="QZWRVkWgOH4tQiXEA4vU-63" value="" style="endArrow=classic;html=1;rounded=0;exitX=0.481;exitY=-0.012;exitDx=0;exitDy=0;exitPerimeter=0;entryX=0.5;entryY=1;entryDx=0;entryDy=0;" edge="1" parent="1" source="QZWRVkWgOH4tQiXEA4vU-45" target="QZWRVkWgOH4tQiXEA4vU-51">
          <mxGeometry width="50" height="50" relative="1" as="geometry">
            <mxPoint x="510" y="470" as="sourcePoint" />
            <mxPoint x="560" y="420" as="targetPoint" />
          </mxGeometry>
        </mxCell>
        <mxCell id="QZWRVkWgOH4tQiXEA4vU-64" value="&lt;font style=&quot;font-size: 16px;&quot;&gt;选择题作答&lt;/font&gt;" style="edgeLabel;html=1;align=center;verticalAlign=middle;resizable=0;points=[];" vertex="1" connectable="0" parent="QZWRVkWgOH4tQiXEA4vU-63">
          <mxGeometry x="0.3159" y="1" relative="1" as="geometry">
            <mxPoint as="offset" />
          </mxGeometry>
        </mxCell>
        <mxCell id="QZWRVkWgOH4tQiXEA4vU-65" value="" style="endArrow=classic;html=1;rounded=0;exitX=1;exitY=1;exitDx=0;exitDy=0;entryX=0.492;entryY=-0.06;entryDx=0;entryDy=0;entryPerimeter=0;" edge="1" parent="1" source="QZWRVkWgOH4tQiXEA4vU-51" target="QZWRVkWgOH4tQiXEA4vU-46">
          <mxGeometry width="50" height="50" relative="1" as="geometry">
            <mxPoint x="830" y="430" as="sourcePoint" />
            <mxPoint x="880" y="380" as="targetPoint" />
          </mxGeometry>
        </mxCell>
        <mxCell id="QZWRVkWgOH4tQiXEA4vU-66" value="&lt;font style=&quot;font-size: 16px;&quot;&gt;选择题得分&lt;/font&gt;" style="edgeLabel;html=1;align=center;verticalAlign=middle;resizable=0;points=[];" vertex="1" connectable="0" parent="QZWRVkWgOH4tQiXEA4vU-65">
          <mxGeometry x="0.1118" y="1" relative="1" as="geometry">
            <mxPoint as="offset" />
          </mxGeometry>
        </mxCell>
      </root>
    </mxGraphModel>
  </diagram>
</mxfile>
